<?xml version="1.0" encoding="UTF-8" standalone="no"?>
<!DOCTYPE svg PUBLIC "-//W3C//DTD SVG 1.1//EN" "http://www.w3.org/Graphics/SVG/1.1/DTD/svg11.dtd">
<svg width="100%" height="100%" viewBox="0 0 200 200" version="1.1" xmlns="http://www.w3.org/2000/svg" xmlns:xlink="http://www.w3.org/1999/xlink" xml:space="preserve" xmlns:serif="http://www.serif.com/" style="fill-rule:evenodd;clip-rule:evenodd;stroke-linejoin:round;stroke-miterlimit:2;">
    <g transform="matrix(1.68031,0,0,1.68031,-1676.08,-747.667)">
        <g transform="matrix(0.44044,0.44044,-1.78819,1.78819,1497.04,-849.041)">
            <path d="M1052,486.695C1052,484.655 1045.28,483 1037,483C1028.72,483 1022,484.655 1022,486.695L1022,516.305C1022,518.345 1028.72,520 1037,520C1045.28,520 1052,518.345 1052,516.305L1052,486.695Z" style="fill:white;"/>
        </g>
        <g transform="matrix(0.44044,-0.44044,1.78819,1.78819,-296.513,64.4321)">
            <path d="M1052,486.695C1052,484.655 1045.28,483 1037,483C1028.72,483 1022,484.655 1022,486.695L1022,516.305C1022,518.345 1028.72,520 1037,520C1045.28,520 1052,518.345 1052,516.305L1052,486.695Z" style="fill:white;"/>
        </g>
    </g>
</svg>
